<?xml version="1.0" encoding="UTF-8"?>
<!DOCTYPE svg PUBLIC "-//W3C//DTD SVG 1.1//EN" "http://www.w3.org/Graphics/SVG/1.1/DTD/svg11.dtd">
<svg xmlns="http://www.w3.org/2000/svg" version="1.1" width="288px" height="288px" style="shape-rendering:geometricPrecision; text-rendering:geometricPrecision; image-rendering:optimizeQuality; fill-rule:evenodd; clip-rule:evenodd" xmlns:xlink="http://www.w3.org/1999/xlink">
<g><path style="opacity:0.974" fill="#000000" d="M 118.5,10.5 C 138.833,10.5 159.167,10.5 179.5,10.5C 179.5,22.1667 179.5,33.8333 179.5,45.5C 206.5,45.5 233.5,45.5 260.5,45.5C 260.5,59.1667 260.5,72.8333 260.5,86.5C 233.5,86.5 206.5,86.5 179.5,86.5C 179.5,141.167 179.5,195.833 179.5,250.5C 206.167,250.5 232.833,250.5 259.5,250.5C 259.5,259.167 259.5,267.833 259.5,276.5C 180.5,276.5 101.5,276.5 22.5,276.5C 22.3335,267.161 22.5002,257.827 23,248.5C 33.3333,203.833 43.6667,159.167 54,114.5C 70.0891,113.509 86.2558,113.175 102.5,113.5C 102.666,119.509 102.499,125.509 102,131.5C 93.3055,171.14 84.8055,210.807 76.5,250.5C 90.8333,250.5 105.167,250.5 119.5,250.5C 119.5,195.833 119.5,141.167 119.5,86.5C 92.1667,86.5 64.8333,86.5 37.5,86.5C 37.5,72.8333 37.5,59.1667 37.5,45.5C 64.5,45.5 91.5,45.5 118.5,45.5C 118.5,33.8333 118.5,22.1667 118.5,10.5 Z"/></g>
<g><path style="opacity:0.971" fill="#000000" d="M 191.5,112.5 C 207.818,113.35 224.151,113.683 240.5,113.5C 240.46,133.905 241.627,154.238 244,174.5C 245.392,184.07 247.726,193.403 251,202.5C 253.171,206.844 255.837,210.844 259,214.5C 259.5,223.16 259.666,231.827 259.5,240.5C 252.159,240.666 244.826,240.5 237.5,240C 216.132,220.45 202.632,196.283 197,167.5C 193.583,149.327 191.749,130.993 191.5,112.5 Z"/></g>
</svg>
