<?xml version="1.0" encoding="UTF-8"?>
<!DOCTYPE svg PUBLIC "-//W3C//DTD SVG 1.1//EN" "http://www.w3.org/Graphics/SVG/1.1/DTD/svg11.dtd">
<svg xmlns="http://www.w3.org/2000/svg" version="1.1" width="288px" height="288px" style="shape-rendering:geometricPrecision; text-rendering:geometricPrecision; image-rendering:optimizeQuality; fill-rule:evenodd; clip-rule:evenodd" xmlns:xlink="http://www.w3.org/1999/xlink">
<g><path style="opacity:0.982" fill="#000000" d="M 32.5,7.5 C 106.833,7.5 181.167,7.5 255.5,7.5C 255.5,15.5 255.5,23.5 255.5,31.5C 246.5,31.5 237.5,31.5 228.5,31.5C 228.5,44.8333 228.5,58.1667 228.5,71.5C 237.5,71.5 246.5,71.5 255.5,71.5C 255.5,87.1667 255.5,102.833 255.5,118.5C 246.5,118.5 237.5,118.5 228.5,118.5C 228.667,158.501 228.5,198.501 228,238.5C 226.622,251.756 221.122,262.923 211.5,272C 206.655,275.422 201.322,277.755 195.5,279C 140.501,279.5 85.501,279.667 30.5,279.5C 30.5,264.5 30.5,249.5 30.5,234.5C 70.5014,234.667 110.501,234.5 150.5,234C 159.793,232.042 165.96,226.542 169,217.5C 170.472,213.277 171.472,208.943 172,204.5C 172.5,175.835 172.667,147.169 172.5,118.5C 146.833,118.5 121.167,118.5 95.5,118.5C 93.317,133.231 94.817,147.564 100,161.5C 106.393,175.053 116.893,183.719 131.5,187.5C 132.496,193.798 132.83,200.132 132.5,206.5C 109.917,209.459 88.5837,205.625 68.5,195C 48.4625,181.113 36.9625,161.946 34,137.5C 32.6057,115.53 32.1057,93.5296 32.5,71.5C 79.1667,71.5 125.833,71.5 172.5,71.5C 172.5,58.1667 172.5,44.8333 172.5,31.5C 125.833,31.5 79.1667,31.5 32.5,31.5C 32.5,23.5 32.5,15.5 32.5,7.5 Z"/></g>
</svg>
