<?xml version="1.0" encoding="UTF-8"?>
<!DOCTYPE svg PUBLIC "-//W3C//DTD SVG 1.1//EN" "http://www.w3.org/Graphics/SVG/1.1/DTD/svg11.dtd">
<svg xmlns="http://www.w3.org/2000/svg" version="1.1" width="288px" height="288px" style="shape-rendering:geometricPrecision; text-rendering:geometricPrecision; image-rendering:optimizeQuality; fill-rule:evenodd; clip-rule:evenodd" xmlns:xlink="http://www.w3.org/1999/xlink">
<g><path style="opacity:0.975" fill="#000000" d="M 31.5,24.5 C 52.5,24.5 73.5,24.5 94.5,24.5C 91.9668,66.9007 97.4668,108.234 111,148.5C 119.931,173.894 134.431,195.394 154.5,213C 177.992,230.104 204.325,237.604 233.5,235.5C 233.5,244.833 233.5,254.167 233.5,263.5C 196.073,265.369 160.073,259.202 125.5,245C 79.2607,221.413 50.094,184.246 38,133.5C 29.952,97.5168 27.7853,61.1834 31.5,24.5 Z"/></g>
<g><path style="opacity:0.98" fill="#000000" d="M 176.5,24.5 C 199.5,24.5 222.5,24.5 245.5,24.5C 245,64.1649 244.667,103.832 244.5,143.5C 222.167,143.5 199.833,143.5 177.5,143.5C 177.156,103.833 176.822,64.1668 176.5,24.5 Z"/></g>
</svg>
