<?xml version="1.0" encoding="UTF-8"?>
<!DOCTYPE svg PUBLIC "-//W3C//DTD SVG 1.1//EN" "http://www.w3.org/Graphics/SVG/1.1/DTD/svg11.dtd">
<svg xmlns="http://www.w3.org/2000/svg" version="1.1" width="288px" height="288px" style="shape-rendering:geometricPrecision; text-rendering:geometricPrecision; image-rendering:optimizeQuality; fill-rule:evenodd; clip-rule:evenodd" xmlns:xlink="http://www.w3.org/1999/xlink">
<g><path style="opacity:0.967" fill="#000000" d="M 127.5,27.5 C 145.179,27.1671 162.846,27.5005 180.5,28.5C 175.418,65.489 170.418,102.489 165.5,139.5C 148.179,140.5 130.846,140.833 113.5,140.5C 117.922,102.787 122.589,65.1206 127.5,27.5 Z"/></g>
<g><path style="opacity:0.967" fill="#000000" d="M 201.5,27.5 C 219.179,27.1671 236.846,27.5005 254.5,28.5C 249.582,65.511 244.582,102.511 239.5,139.5C 222.179,140.5 204.846,140.833 187.5,140.5C 192.249,102.844 196.915,65.177 201.5,27.5 Z"/></g>
<g><path style="opacity:0.972" fill="#000000" d="M 30.5,28.5 C 49.8333,28.5 69.1667,28.5 88.5,28.5C 88.0826,61.856 88.5826,95.1894 90,128.5C 97.0482,179.22 125.215,211.72 174.5,226C 196.114,231.829 218.114,234.329 240.5,233.5C 240.831,242.192 240.498,250.859 239.5,259.5C 200.764,259.8 163.098,253.633 126.5,241C 82.4844,224.318 52.6511,193.818 37,149.5C 34.5807,141.317 32.914,132.984 32,124.5C 31.6794,92.4945 31.1794,60.4945 30.5,28.5 Z"/></g>
</svg>
