<?xml version="1.0" encoding="UTF-8"?>
<!DOCTYPE svg PUBLIC "-//W3C//DTD SVG 1.1//EN" "http://www.w3.org/Graphics/SVG/1.1/DTD/svg11.dtd">
<svg xmlns="http://www.w3.org/2000/svg" version="1.1" width="288px" height="288px" style="shape-rendering:geometricPrecision; text-rendering:geometricPrecision; image-rendering:optimizeQuality; fill-rule:evenodd; clip-rule:evenodd" xmlns:xlink="http://www.w3.org/1999/xlink">
<g><path style="opacity:0.981" fill="#000000" d="M 95.5,20.5 C 126.168,20.3334 156.835,20.5 187.5,21C 209.812,24.4192 228.646,34.2525 244,50.5C 249.478,57.9271 252.812,66.2604 254,75.5C 254.667,119.5 254.667,163.5 254,207.5C 251.136,226.353 241.302,240.186 224.5,249C 213.738,254.587 202.405,258.587 190.5,261C 157.833,261.667 125.167,261.667 92.5,261C 75.9682,258.16 60.9682,251.827 47.5,242C 34.6784,231.188 28.1784,217.355 28,200.5C 27.3333,161.167 27.3333,121.833 28,82.5C 28.785,64.4275 36.285,49.9275 50.5,39C 64.4335,30.0267 79.4335,23.86 95.5,20.5 Z M 130.5,51.5 C 137.841,51.3337 145.174,51.5003 152.5,52C 157.567,53.0326 161.9,55.3659 165.5,59C 145.539,96.4209 125.706,133.921 106,171.5C 105.037,139.127 105.37,106.794 107,74.5C 110.126,61.8729 117.959,54.2062 130.5,51.5 Z M 175.5,110.5 C 176.664,141.664 176.831,172.997 176,204.5C 172.558,223.775 161.058,234.108 141.5,235.5C 132.585,234.585 124.585,231.419 117.5,226C 116.128,224.758 115.128,223.258 114.5,221.5C 135.112,184.606 155.445,147.606 175.5,110.5 Z"/></g>
</svg>
