<?xml version="1.0" encoding="UTF-8"?>
<!DOCTYPE svg PUBLIC "-//W3C//DTD SVG 1.1//EN" "http://www.w3.org/Graphics/SVG/1.1/DTD/svg11.dtd">
<svg xmlns="http://www.w3.org/2000/svg" version="1.1" width="288px" height="288px" style="shape-rendering:geometricPrecision; text-rendering:geometricPrecision; image-rendering:optimizeQuality; fill-rule:evenodd; clip-rule:evenodd" xmlns:xlink="http://www.w3.org/1999/xlink">
<g><path style="opacity:0.975" fill="#000000" d="M 129.5,29.5 C 151.177,29.167 172.844,29.5003 194.5,30.5C 219.24,103.054 243.573,175.721 267.5,248.5C 236.165,248.667 204.832,248.5 173.5,248C 143.235,241.714 112.902,235.88 82.5,230.5C 81.2419,235.942 79.5752,241.276 77.5,246.5C 58.1782,247.5 38.8448,247.833 19.5,247.5C 19.1156,240.411 19.6156,233.411 21,226.5C 36.8333,185.5 52.6667,144.5 68.5,103.5C 89.5,102.167 110.5,102.167 131.5,103.5C 120.963,131.404 110.296,159.237 99.5,187C 129.299,192.665 158.966,197.832 188.5,202.5C 168.23,145.022 148.563,87.355 129.5,29.5 Z"/></g>
</svg>
