<?xml version="1.0" encoding="UTF-8"?>
<!DOCTYPE svg PUBLIC "-//W3C//DTD SVG 1.1//EN" "http://www.w3.org/Graphics/SVG/1.1/DTD/svg11.dtd">
<svg xmlns="http://www.w3.org/2000/svg" version="1.1" width="288px" height="288px" style="shape-rendering:geometricPrecision; text-rendering:geometricPrecision; image-rendering:optimizeQuality; fill-rule:evenodd; clip-rule:evenodd" xmlns:xlink="http://www.w3.org/1999/xlink">
<g><path style="opacity:0.976" fill="#000000" d="M 142.5,21.5 C 163.833,21.5 185.167,21.5 206.5,21.5C 206.5,33.8333 206.5,46.1667 206.5,58.5C 219.167,58.5 231.833,58.5 244.5,58.5C 244.5,71.8333 244.5,85.1667 244.5,98.5C 231.833,98.5 219.167,98.5 206.5,98.5C 204.281,133.222 208.115,167.222 218,200.5C 221.718,210.274 226.718,219.274 233,227.5C 238.996,234.248 246.496,237.915 255.5,238.5C 255.5,246.5 255.5,254.5 255.5,262.5C 232.98,262.408 212.98,255.242 195.5,241C 172.471,220.276 157.305,194.776 150,164.5C 144.871,142.8 142.371,120.8 142.5,98.5C 127.163,98.3334 111.83,98.5001 96.5,99C 92.9421,100.892 90.4421,103.725 89,107.5C 88.0193,144.227 88.3526,180.893 90,217.5C 91.6374,219.81 93.804,221.31 96.5,222C 108.829,222.5 121.162,222.667 133.5,222.5C 133.5,235.833 133.5,249.167 133.5,262.5C 110.128,262.937 86.7946,262.437 63.5,261C 43.1785,254.216 32.6785,240.05 32,218.5C 31.5,165.168 31.3333,111.834 31.5,58.5C 68.5,58.5 105.5,58.5 142.5,58.5C 142.5,46.1667 142.5,33.8333 142.5,21.5 Z"/></g>
</svg>
