<?xml version="1.0" encoding="UTF-8"?>
<!DOCTYPE svg PUBLIC "-//W3C//DTD SVG 1.1//EN" "http://www.w3.org/Graphics/SVG/1.1/DTD/svg11.dtd">
<svg xmlns="http://www.w3.org/2000/svg" version="1.1" width="288px" height="288px" style="shape-rendering:geometricPrecision; text-rendering:geometricPrecision; image-rendering:optimizeQuality; fill-rule:evenodd; clip-rule:evenodd" xmlns:xlink="http://www.w3.org/1999/xlink">
<g><path style="opacity:0.982" fill="#000000" d="M 29.5,22.5 C 104.167,22.5 178.833,22.5 253.5,22.5C 253.667,41.5029 253.5,60.5029 253,79.5C 223.453,115.885 199.453,155.885 181,199.5C 180.5,220.497 180.333,241.497 180.5,262.5C 154.167,262.5 127.833,262.5 101.5,262.5C 101.333,241.497 101.5,220.497 102,199.5C 102.384,195.347 103.384,191.347 105,187.5C 110.985,174.19 117.985,161.523 126,149.5C 141.596,125.973 157.93,102.973 175,80.5C 176.449,70.6051 176.949,60.6051 176.5,50.5C 127.5,50.5 78.5,50.5 29.5,50.5C 29.5,41.1667 29.5,31.8333 29.5,22.5 Z"/></g>
</svg>
