<?xml version="1.0" encoding="UTF-8"?>
<!DOCTYPE svg PUBLIC "-//W3C//DTD SVG 1.1//EN" "http://www.w3.org/Graphics/SVG/1.1/DTD/svg11.dtd">
<svg xmlns="http://www.w3.org/2000/svg" version="1.1" width="288px" height="288px" style="shape-rendering:geometricPrecision; text-rendering:geometricPrecision; image-rendering:optimizeQuality; fill-rule:evenodd; clip-rule:evenodd" xmlns:xlink="http://www.w3.org/1999/xlink">
<g><path style="opacity:0.981" fill="#000000" d="M 27.5,22.5 C 102.833,22.5 178.167,22.5 253.5,22.5C 253.666,31.5062 253.5,40.5062 253,49.5C 203.86,111.607 154.36,173.441 104.5,235C 154.166,235.5 203.832,235.667 253.5,235.5C 253.5,244.5 253.5,253.5 253.5,262.5C 178.167,262.5 102.833,262.5 27.5,262.5C 27.3336,253.494 27.5002,244.494 28,235.5C 77.1396,173.393 126.64,111.559 176.5,50C 126.834,49.5 77.1678,49.3333 27.5,49.5C 27.5,40.5 27.5,31.5 27.5,22.5 Z"/></g>
</svg>
