<?xml version="1.0" encoding="UTF-8"?>
<!DOCTYPE svg PUBLIC "-//W3C//DTD SVG 1.1//EN" "http://www.w3.org/Graphics/SVG/1.1/DTD/svg11.dtd">
<svg xmlns="http://www.w3.org/2000/svg" version="1.1" width="288px" height="288px" style="shape-rendering:geometricPrecision; text-rendering:geometricPrecision; image-rendering:optimizeQuality; fill-rule:evenodd; clip-rule:evenodd" xmlns:xlink="http://www.w3.org/1999/xlink">
<g><path style="opacity:0.975" fill="#000000" d="M 31.5,22.5 C 105.833,22.5 180.167,22.5 254.5,22.5C 254.5,58.5 254.5,94.5 254.5,130.5C 215.165,130.333 175.832,130.5 136.5,131C 126.451,132.108 117.951,136.275 111,143.5C 109.414,145.67 108.08,148.004 107,150.5C 105.408,170.462 105.075,190.462 106,210.5C 106.835,219.682 111.335,226.515 119.5,231C 123.95,233.261 128.617,234.928 133.5,236C 152.5,236.667 171.5,236.667 190.5,236C 205.148,233.52 213.482,225.02 215.5,210.5C 228.504,210.333 241.504,210.5 254.5,211C 250.689,235.643 237.022,251.977 213.5,260C 205.966,262.089 198.3,263.422 190.5,264C 158.833,264.667 127.167,264.667 95.5,264C 73.2984,262.149 54.7984,252.982 40,236.5C 36.2463,230.992 33.5797,224.992 32,218.5C 31.3333,195.5 31.3333,172.5 32,149.5C 34.2351,138.936 39.4017,130.103 47.5,123C 60.3348,112.604 75.0014,106.271 91.5,104C 120.831,103.5 150.165,103.333 179.5,103.5C 179.5,85.8333 179.5,68.1667 179.5,50.5C 130.167,50.5 80.8333,50.5 31.5,50.5C 31.5,41.1667 31.5,31.8333 31.5,22.5 Z"/></g>
</svg>
