<?xml version="1.0" encoding="UTF-8"?>
<!DOCTYPE svg PUBLIC "-//W3C//DTD SVG 1.1//EN" "http://www.w3.org/Graphics/SVG/1.1/DTD/svg11.dtd">
<svg xmlns="http://www.w3.org/2000/svg" version="1.1" width="288px" height="288px" style="shape-rendering:geometricPrecision; text-rendering:geometricPrecision; image-rendering:optimizeQuality; fill-rule:evenodd; clip-rule:evenodd" xmlns:xlink="http://www.w3.org/1999/xlink">
<g><path style="opacity:0.973" fill="#000000" d="M 89.5,21.5 C 124.168,21.3333 158.835,21.5 193.5,22C 226.682,25.053 246.015,42.8863 251.5,75.5C 239.162,75.6665 226.829,75.4999 214.5,75C 211.846,60.3463 203.18,51.6796 188.5,49C 169.5,48.3333 150.5,48.3333 131.5,49C 107.242,54.9683 98.4087,70.1349 105,94.5C 110.156,106.333 117.656,116.5 127.5,125C 134.985,131.241 142.652,137.241 150.5,143C 175.216,157.387 198.549,173.72 220.5,192C 230.444,200.939 239.278,210.772 247,221.5C 249.225,225.281 250.891,229.281 252,233.5C 252.5,242.827 252.666,252.161 252.5,261.5C 177.833,261.5 103.167,261.5 28.5,261.5C 28.5,252.5 28.5,243.5 28.5,234.5C 78.1711,234.833 127.838,234.5 177.5,233.5C 175.968,225.768 172.801,218.768 168,212.5C 154.632,198.121 139.798,185.621 123.5,175C 101.132,162.153 79.7984,147.82 59.5,132C 48.8461,123.014 40.0128,112.514 33,100.5C 26.4176,75.2474 33.2509,54.4141 53.5,38C 64.2073,29.4765 76.2073,23.9765 89.5,21.5 Z"/></g>
</svg>
