<?xml version="1.0" encoding="UTF-8"?>
<!DOCTYPE svg PUBLIC "-//W3C//DTD SVG 1.1//EN" "http://www.w3.org/Graphics/SVG/1.1/DTD/svg11.dtd">
<svg xmlns="http://www.w3.org/2000/svg" version="1.1" width="288px" height="288px" style="shape-rendering:geometricPrecision; text-rendering:geometricPrecision; image-rendering:optimizeQuality; fill-rule:evenodd; clip-rule:evenodd" xmlns:xlink="http://www.w3.org/1999/xlink">
<g><path style="opacity:0.98" fill="#000000" d="M 29.5,24.5 C 104.833,24.5 180.167,24.5 255.5,24.5C 255.5,104.5 255.5,184.5 255.5,264.5C 180.167,264.5 104.833,264.5 29.5,264.5C 29.5,184.5 29.5,104.5 29.5,24.5 Z M 71.5,61.5 C 118.833,61.5 166.167,61.5 213.5,61.5C 213.5,84.5 213.5,107.5 213.5,130.5C 166.167,130.5 118.833,130.5 71.5,130.5C 71.5,107.5 71.5,84.5 71.5,61.5 Z M 71.5,158.5 C 118.833,158.5 166.167,158.5 213.5,158.5C 213.5,181.5 213.5,204.5 213.5,227.5C 166.167,227.5 118.833,227.5 71.5,227.5C 71.5,204.5 71.5,181.5 71.5,158.5 Z"/></g>
</svg>
