<?xml version="1.0" encoding="UTF-8"?>
<!DOCTYPE svg PUBLIC "-//W3C//DTD SVG 1.1//EN" "http://www.w3.org/Graphics/SVG/1.1/DTD/svg11.dtd">
<svg xmlns="http://www.w3.org/2000/svg" version="1.1" width="288px" height="288px" style="shape-rendering:geometricPrecision; text-rendering:geometricPrecision; image-rendering:optimizeQuality; fill-rule:evenodd; clip-rule:evenodd" xmlns:xlink="http://www.w3.org/1999/xlink">
<g><path style="opacity:0.972" fill="#000000" d="M 30.5,27.5 C 92.8333,27.5 155.167,27.5 217.5,27.5C 217.108,54.4874 223.941,79.4874 238,102.5C 241.938,108.606 246.771,113.94 252.5,118.5C 253.498,128.144 253.832,137.81 253.5,147.5C 246.222,147.344 239.222,145.844 232.5,143C 202.915,126.58 181.582,102.747 168.5,71.5C 144.843,70.5003 121.176,70.1669 97.5,70.5C 97.1006,90.8914 97.9339,111.225 100,131.5C 100.979,138.405 104.813,140.905 111.5,139C 138.11,132.514 164.777,126.347 191.5,120.5C 191.667,132.505 191.5,144.505 191,156.5C 170.85,163.661 150.683,170.828 130.5,178C 128.051,179.863 127.051,182.363 127.5,185.5C 127.542,188.259 128.042,190.925 129,193.5C 144.104,211.481 163.27,222.981 186.5,228C 203.683,231.821 221.017,232.988 238.5,231.5C 238.5,240.167 238.5,248.833 238.5,257.5C 197.977,261.924 158.643,257.09 120.5,243C 73.656,222.811 45.156,187.645 35,137.5C 32.7153,125.271 31.3819,112.937 31,100.5C 30.5,76.1689 30.3334,51.8356 30.5,27.5 Z"/></g>
</svg>
