<?xml version="1.0" encoding="UTF-8"?>
<!DOCTYPE svg PUBLIC "-//W3C//DTD SVG 1.1//EN" "http://www.w3.org/Graphics/SVG/1.1/DTD/svg11.dtd">
<svg xmlns="http://www.w3.org/2000/svg" version="1.1" width="288px" height="288px" style="shape-rendering:geometricPrecision; text-rendering:geometricPrecision; image-rendering:optimizeQuality; fill-rule:evenodd; clip-rule:evenodd" xmlns:xlink="http://www.w3.org/1999/xlink">
<g><path style="opacity:0.98" fill="#000000" d="M 96.5,23.5 C 128.502,23.3334 160.502,23.5 192.5,24C 209.826,27.5002 225.492,34.5002 239.5,45C 256.296,61.6806 261.463,81.5139 255,104.5C 251.15,116.017 243.983,124.851 233.5,131C 221.716,137.928 209.05,142.261 195.5,144C 210.849,146.781 225.182,152.114 238.5,160C 257.857,177.598 263.024,198.765 254,223.5C 245.421,240.716 231.921,252.216 213.5,258C 206.953,260.405 200.286,262.405 193.5,264C 161.167,264.667 128.833,264.667 96.5,264C 78.6945,260.428 62.6945,253.095 48.5,242C 33.4754,226.747 28.3087,208.581 33,187.5C 37.0557,173.78 45.2224,163.28 57.5,156C 68.8338,150 80.8338,146 93.5,144C 74.6263,141.496 58.1263,133.996 44,121.5C 32.4424,107.058 28.7757,90.7249 33,72.5C 39.6256,53.2052 52.459,39.7052 71.5,32C 79.8414,28.8314 88.1747,25.998 96.5,23.5 Z M 134.5,53.5 C 167.943,50.1095 182.776,65.1095 179,98.5C 175.359,117.803 163.692,128.47 144,130.5C 116.455,125.799 104.788,109.466 109,81.5C 110.911,65.9263 119.411,56.593 134.5,53.5 Z M 138.5,159.5 C 169.815,158.988 183.315,174.322 179,205.5C 174.472,228.192 160.638,238.358 137.5,236C 120.633,232.796 111.133,222.629 109,205.5C 107.285,194.279 108.952,183.612 114,173.5C 120.209,165.315 128.376,160.648 138.5,159.5 Z"/></g>
</svg>
