<?xml version="1.0" encoding="UTF-8"?>
<!DOCTYPE svg PUBLIC "-//W3C//DTD SVG 1.1//EN" "http://www.w3.org/Graphics/SVG/1.1/DTD/svg11.dtd">
<svg xmlns="http://www.w3.org/2000/svg" version="1.1" width="288px" height="288px" style="shape-rendering:geometricPrecision; text-rendering:geometricPrecision; image-rendering:optimizeQuality; fill-rule:evenodd; clip-rule:evenodd" xmlns:xlink="http://www.w3.org/1999/xlink">
<g><path style="opacity:0.979" fill="#000000" d="M 29.5,32.5 C 103.5,32.5 177.5,32.5 251.5,32.5C 251.5,46.8333 251.5,61.1667 251.5,75.5C 197.5,75.5 143.5,75.5 89.5,75.5C 89.3334,90.1705 89.5001,104.837 90,119.5C 90.6639,131.157 93.6639,142.157 99,152.5C 105.458,161.479 114.292,165.812 125.5,165.5C 125.5,145.5 125.5,125.5 125.5,105.5C 147.5,105.5 169.5,105.5 191.5,105.5C 191.333,129.502 191.5,153.502 192,177.5C 195.764,205.937 211.597,223.77 239.5,231C 243.754,232.314 248.087,233.147 252.5,233.5C 252.5,241.167 252.5,248.833 252.5,256.5C 200.339,257.09 159.672,236.09 130.5,193.5C 73.5449,200.303 40.0449,175.636 30,119.5C 29.5,90.5019 29.3334,61.5019 29.5,32.5 Z"/></g>
</svg>
