<?xml version="1.0" encoding="UTF-8"?>
<!DOCTYPE svg PUBLIC "-//W3C//DTD SVG 1.1//EN" "http://www.w3.org/Graphics/SVG/1.1/DTD/svg11.dtd">
<svg xmlns="http://www.w3.org/2000/svg" version="1.1" width="288px" height="288px" style="shape-rendering:geometricPrecision; text-rendering:geometricPrecision; image-rendering:optimizeQuality; fill-rule:evenodd; clip-rule:evenodd" xmlns:xlink="http://www.w3.org/1999/xlink">
<g><path style="opacity:0.969" fill="#000000" d="M 95.5,20.5 C 127.168,20.3334 158.835,20.5 190.5,21C 215.121,22.7242 234.954,33.2242 250,52.5C 253.409,58.3926 255.409,64.7259 256,71.5C 256.667,91.1667 256.667,110.833 256,130.5C 254.389,142.223 249.222,152.056 240.5,160C 226.548,173.305 209.881,180.639 190.5,182C 176.167,182.333 161.833,182.667 147.5,183C 183.167,200.167 218.833,217.333 254.5,234.5C 255.498,243.81 255.832,253.143 255.5,262.5C 180.5,262.5 105.5,262.5 30.5,262.5C 30.5,253.167 30.5,243.833 30.5,234.5C 79.1678,234.667 127.834,234.5 176.5,234C 140.5,216.667 104.5,199.333 68.5,182C 67.5139,171.916 67.1806,161.749 67.5,151.5C 95.8353,151.667 124.169,151.5 152.5,151C 164.132,148.036 171.966,140.869 176,129.5C 176.929,108.463 176.596,87.4627 175,66.5C 171.135,57.6367 164.301,52.8034 154.5,52C 136.833,51.3333 119.167,51.3333 101.5,52C 87.5862,54.2414 77.2529,61.5747 70.5,74C 57.5043,74.4999 44.5043,74.6666 31.5,74.5C 34.7263,50.8567 47.3929,34.6901 69.5,26C 78.1461,23.3984 86.8127,21.565 95.5,20.5 Z"/></g>
</svg>
