<?xml version="1.0" encoding="UTF-8"?>
<!DOCTYPE svg PUBLIC "-//W3C//DTD SVG 1.1//EN" "http://www.w3.org/Graphics/SVG/1.1/DTD/svg11.dtd">
<svg xmlns="http://www.w3.org/2000/svg" version="1.1" width="288px" height="288px" style="shape-rendering:geometricPrecision; text-rendering:geometricPrecision; image-rendering:optimizeQuality; fill-rule:evenodd; clip-rule:evenodd" xmlns:xlink="http://www.w3.org/1999/xlink">
<g><path style="opacity:0.972" fill="#000000" d="M 25.5,7.5 C 100.167,7.5 174.833,7.5 249.5,7.5C 249.5,16.5 249.5,25.5 249.5,34.5C 222.167,34.5 194.833,34.5 167.5,34.5C 167.5,47.8333 167.5,61.1667 167.5,74.5C 195.5,74.5 223.5,74.5 251.5,74.5C 251.5,107.833 251.5,141.167 251.5,174.5C 231.5,174.5 211.5,174.5 191.5,174.5C 191.5,155.167 191.5,135.833 191.5,116.5C 157.5,116.5 123.5,116.5 89.5,116.5C 89.3334,139.169 89.5,161.836 90,184.5C 94.7018,213.548 110.869,233.381 138.5,244C 151.395,248.912 164.728,251.912 178.5,253C 190.825,254.039 203.158,254.873 215.5,255.5C 215.5,263.5 215.5,271.5 215.5,279.5C 180.769,280.409 146.769,275.909 113.5,266C 84.0492,256.88 60.2159,240.047 42,215.5C 34.4407,203.159 29.4407,189.826 27,175.5C 25.5494,141.531 25.0494,107.531 25.5,73.5C 53.8333,73.5 82.1667,73.5 110.5,73.5C 110.5,60.1667 110.5,46.8333 110.5,33.5C 82.1667,33.5 53.8333,33.5 25.5,33.5C 25.5,24.8333 25.5,16.1667 25.5,7.5 Z"/></g>
</svg>
