<?xml version="1.0" encoding="UTF-8"?>
<!DOCTYPE svg PUBLIC "-//W3C//DTD SVG 1.1//EN" "http://www.w3.org/Graphics/SVG/1.1/DTD/svg11.dtd">
<svg xmlns="http://www.w3.org/2000/svg" version="1.1" width="288px" height="288px" style="shape-rendering:geometricPrecision; text-rendering:geometricPrecision; image-rendering:optimizeQuality; fill-rule:evenodd; clip-rule:evenodd" xmlns:xlink="http://www.w3.org/1999/xlink">
<g><path style="opacity:0.973" fill="#000000" d="M 248.5,26.5 C 250.5,26.5 252.5,26.5 254.5,26.5C 254.5,43.1667 254.5,59.8333 254.5,76.5C 180.104,82.6875 105.771,89.3542 31.5,96.5C 31.1667,88.8333 30.8333,81.1667 30.5,73.5C 30.5172,65.4324 31.1839,57.5991 32.5,50C 104.684,42.4829 176.684,34.6496 248.5,26.5 Z"/></g>
<g><path style="opacity:0.972" fill="#000000" d="M 231.5,109.5 C 233.5,109.5 235.5,109.5 237.5,109.5C 238.142,125.242 237.475,140.742 235.5,156C 173.589,161.931 111.756,168.097 50,174.5C 49.1769,159.925 49.3436,145.425 50.5,131C 111.028,124.225 171.361,117.058 231.5,109.5 Z"/></g>
<g><path style="opacity:0.973" fill="#000000" d="M 252.5,188.5 C 254.485,204.8 255.152,221.466 254.5,238.5C 179.949,245.032 105.449,251.698 31,258.5C 30.1762,242.926 30.3429,227.426 31.5,212C 105.35,204.479 179.016,196.646 252.5,188.5 Z"/></g>
</svg>
