<?xml version="1.0" encoding="UTF-8"?>
<!DOCTYPE svg PUBLIC "-//W3C//DTD SVG 1.1//EN" "http://www.w3.org/Graphics/SVG/1.1/DTD/svg11.dtd">
<svg xmlns="http://www.w3.org/2000/svg" version="1.1" width="288px" height="288px" style="shape-rendering:geometricPrecision; text-rendering:geometricPrecision; image-rendering:optimizeQuality; fill-rule:evenodd; clip-rule:evenodd" xmlns:xlink="http://www.w3.org/1999/xlink">
<g><path style="opacity:0.972" fill="#000000" d="M 40.5,34.5 C 106.833,34.5 173.167,34.5 239.5,34.5C 239.5,46.5 239.5,58.5 239.5,70.5C 173.167,70.5 106.833,70.5 40.5,70.5C 40.5,58.5 40.5,46.5 40.5,34.5 Z"/></g>
<g><path style="opacity:0.975" fill="#000000" d="M 30.5,99.5 C 104.5,99.5 178.5,99.5 252.5,99.5C 252.5,113.167 252.5,126.833 252.5,140.5C 199.833,140.5 147.167,140.5 94.5,140.5C 97.8801,177.443 116.547,203.276 150.5,218C 179.16,226.749 208.493,230.916 238.5,230.5C 238.5,238.5 238.5,246.5 238.5,254.5C 219.164,254.667 199.83,254.5 180.5,254C 136.495,254.78 97.8283,241.113 64.5,213C 32.3627,181.729 21.0294,143.896 30.5,99.5 Z"/></g>
</svg>
