<?xml version="1.0" encoding="UTF-8"?>
<!DOCTYPE svg PUBLIC "-//W3C//DTD SVG 1.1//EN" "http://www.w3.org/Graphics/SVG/1.1/DTD/svg11.dtd">
<svg xmlns="http://www.w3.org/2000/svg" version="1.1" width="288px" height="288px" style="shape-rendering:geometricPrecision; text-rendering:geometricPrecision; image-rendering:optimizeQuality; fill-rule:evenodd; clip-rule:evenodd" xmlns:xlink="http://www.w3.org/1999/xlink">
<g><path style="opacity:0.969" fill="#000000" d="M 32.5,29.5 C 106.167,29.5 179.833,29.5 253.5,29.5C 253.5,42.8333 253.5,56.1667 253.5,69.5C 179.833,69.5 106.167,69.5 32.5,69.5C 32.5,56.1667 32.5,42.8333 32.5,29.5 Z"/></g>
<g><path style="opacity:0.975" fill="#000000" d="M 31.5,99.5 C 106.167,99.5 180.833,99.5 255.5,99.5C 255.5,113.167 255.5,126.833 255.5,140.5C 223.5,140.5 191.5,140.5 159.5,140.5C 156.437,165.374 161.937,188.041 176,208.5C 193.567,226.69 215.067,235.024 240.5,233.5C 240.5,241.5 240.5,249.5 240.5,257.5C 201.085,262.231 165.418,253.064 133.5,230C 120.325,218.502 109.825,205.002 102,189.5C 97.6925,176.939 93.6925,164.272 90,151.5C 88.6572,147.49 86.4905,143.99 83.5,141C 66.1699,140.5 48.8365,140.333 31.5,140.5C 31.5,126.833 31.5,113.167 31.5,99.5 Z"/></g>
</svg>
