<?xml version="1.0" encoding="UTF-8"?>
<!DOCTYPE svg PUBLIC "-//W3C//DTD SVG 1.1//EN" "http://www.w3.org/Graphics/SVG/1.1/DTD/svg11.dtd">
<svg xmlns="http://www.w3.org/2000/svg" version="1.1" width="288px" height="288px" style="shape-rendering:geometricPrecision; text-rendering:geometricPrecision; image-rendering:optimizeQuality; fill-rule:evenodd; clip-rule:evenodd" xmlns:xlink="http://www.w3.org/1999/xlink">
<g><path style="opacity:0.98" fill="#000000" d="M 74.5,24.5 C 92.8454,24.1671 111.179,24.5004 129.5,25.5C 117.795,103.105 106.461,180.771 95.5,258.5C 77.1667,258.5 58.8333,258.5 40.5,258.5C 51.5552,180.447 62.8885,102.447 74.5,24.5 Z"/></g>
<g><path style="opacity:0.976" fill="#000000" d="M 152.5,24.5 C 172.5,24.5 192.5,24.5 212.5,24.5C 212.308,65.7656 215.475,106.766 222,147.5C 225.25,168.506 231.583,188.506 241,207.5C 243.797,211.962 246.964,216.128 250.5,220C 244.713,229.739 238.546,239.239 232,248.5C 220.088,241.256 210.088,231.923 202,220.5C 180.529,186.1 166.529,148.767 160,108.5C 155.404,80.6857 152.904,52.6857 152.5,24.5 Z"/></g>
</svg>
