<?xml version="1.0" encoding="UTF-8"?>
<!DOCTYPE svg PUBLIC "-//W3C//DTD SVG 1.1//EN" "http://www.w3.org/Graphics/SVG/1.1/DTD/svg11.dtd">
<svg xmlns="http://www.w3.org/2000/svg" version="1.1" width="288px" height="288px" style="shape-rendering:geometricPrecision; text-rendering:geometricPrecision; image-rendering:optimizeQuality; fill-rule:evenodd; clip-rule:evenodd" xmlns:xlink="http://www.w3.org/1999/xlink">
<g><path style="opacity:0.976" fill="#000000" d="M 29.5,23.5 C 50.8333,23.5 72.1667,23.5 93.5,23.5C 90.8127,67.3349 96.646,110.002 111,151.5C 121.439,180.577 139.606,203.411 165.5,220C 186.47,230.992 208.803,235.825 232.5,234.5C 232.5,243.833 232.5,253.167 232.5,262.5C 185.62,266.03 142.287,255.53 102.5,231C 66.0043,204.56 43.1709,169.06 34,124.5C 27.8102,91.0374 26.3102,57.3707 29.5,23.5 Z"/></g>
<g><path style="opacity:0.978" fill="#000000" d="M 189.5,23.5 C 212.5,23.5 235.5,23.5 258.5,23.5C 248.815,62.905 238.815,102.238 228.5,141.5C 206.174,142.666 183.841,142.833 161.5,142C 171.065,102.572 180.399,63.0716 189.5,23.5 Z"/></g>
</svg>
