<?xml version="1.0" encoding="UTF-8"?>
<!DOCTYPE svg PUBLIC "-//W3C//DTD SVG 1.1//EN" "http://www.w3.org/Graphics/SVG/1.1/DTD/svg11.dtd">
<svg xmlns="http://www.w3.org/2000/svg" version="1.1" width="288px" height="288px" style="shape-rendering:geometricPrecision; text-rendering:geometricPrecision; image-rendering:optimizeQuality; fill-rule:evenodd; clip-rule:evenodd" xmlns:xlink="http://www.w3.org/1999/xlink">
<g><path style="opacity:0.973" fill="#000000" d="M 120.5,54.5 C 132.5,54.5 144.5,54.5 156.5,54.5C 156.5,76.8333 156.5,99.1667 156.5,121.5C 178.833,121.5 201.167,121.5 223.5,121.5C 223.5,133.5 223.5,145.5 223.5,157.5C 201.167,157.5 178.833,157.5 156.5,157.5C 156.5,179.833 156.5,202.167 156.5,224.5C 144.5,224.5 132.5,224.5 120.5,224.5C 120.5,202.167 120.5,179.833 120.5,157.5C 98.1667,157.5 75.8333,157.5 53.5,157.5C 53.5,145.5 53.5,133.5 53.5,121.5C 75.8333,121.5 98.1667,121.5 120.5,121.5C 120.5,99.1667 120.5,76.8333 120.5,54.5 Z"/></g>
</svg>
