<?xml version="1.0" encoding="UTF-8"?>
<!DOCTYPE svg PUBLIC "-//W3C//DTD SVG 1.1//EN" "http://www.w3.org/Graphics/SVG/1.1/DTD/svg11.dtd">
<svg xmlns="http://www.w3.org/2000/svg" version="1.1" width="288px" height="288px" style="shape-rendering:geometricPrecision; text-rendering:geometricPrecision; image-rendering:optimizeQuality; fill-rule:evenodd; clip-rule:evenodd" xmlns:xlink="http://www.w3.org/1999/xlink">
<g><path style="opacity:0.967" fill="#000000" d="M 118.5,64.5 C 131.833,64.5 145.167,64.5 158.5,64.5C 158.333,80.8367 158.5,97.1701 159,113.5C 177.985,104.508 196.985,95.5081 216,86.5C 216.772,86.6448 217.439,86.9781 218,87.5C 221.979,95.956 225.812,104.456 229.5,113C 211.775,122.196 193.775,130.862 175.5,139C 193.351,147.17 211.184,155.337 229,163.5C 229.667,164.5 229.667,165.5 229,166.5C 225.449,174.995 221.616,183.328 217.5,191.5C 197.856,182.786 178.356,173.786 159,164.5C 158.5,181.83 158.333,199.163 158.5,216.5C 145.167,216.5 131.833,216.5 118.5,216.5C 118.667,199.497 118.5,182.497 118,165.5C 99.313,174.786 80.4797,183.786 61.5,192.5C 56.9102,183.653 52.5768,174.653 48.5,165.5C 66.1667,156.833 83.8333,148.167 101.5,139.5C 83.8333,131 66.1667,122.5 48.5,114C 52.401,104.799 56.401,95.6327 60.5,86.5C 79.5,95.1667 98.5,103.833 117.5,112.5C 118.499,96.5139 118.833,80.5139 118.5,64.5 Z"/></g>
</svg>
