<?xml version="1.0" encoding="UTF-8"?>
<!DOCTYPE svg PUBLIC "-//W3C//DTD SVG 1.1//EN" "http://www.w3.org/Graphics/SVG/1.1/DTD/svg11.dtd">
<svg xmlns="http://www.w3.org/2000/svg" version="1.1" width="288px" height="288px" style="shape-rendering:geometricPrecision; text-rendering:geometricPrecision; image-rendering:optimizeQuality; fill-rule:evenodd; clip-rule:evenodd" xmlns:xlink="http://www.w3.org/1999/xlink">
<g><path style="opacity:0.967" fill="#000000" d="M 141.5,17.5 C 181.167,17.5 220.833,17.5 260.5,17.5C 260.5,28.1667 260.5,38.8333 260.5,49.5C 220.833,49.5 181.167,49.5 141.5,49.5C 141.5,38.8333 141.5,28.1667 141.5,17.5 Z"/></g>
<g><path style="opacity:0.975" fill="#000000" d="M 25.5,78.5 C 35.1667,78.5 44.8333,78.5 54.5,78.5C 52.4456,120.227 68.7789,152.394 103.5,175C 136.605,193.864 172.272,204.531 210.5,207C 229.142,208.298 247.809,208.798 266.5,208.5C 266.826,228.409 266.493,248.243 265.5,268C 225.676,272.485 186.342,269.818 147.5,260C 75.3389,237.499 34.8389,188.666 26,113.5C 25.5001,101.838 25.3335,90.1714 25.5,78.5 Z"/></g>
<g><path style="opacity:0.967" fill="#000000" d="M 141.5,90.5 C 181.167,90.5 220.833,90.5 260.5,90.5C 260.5,101.167 260.5,111.833 260.5,122.5C 220.833,122.5 181.167,122.5 141.5,122.5C 141.5,111.833 141.5,101.167 141.5,90.5 Z"/></g>
</svg>
