<?xml version="1.0" encoding="UTF-8"?>
<!DOCTYPE svg PUBLIC "-//W3C//DTD SVG 1.1//EN" "http://www.w3.org/Graphics/SVG/1.1/DTD/svg11.dtd">
<svg xmlns="http://www.w3.org/2000/svg" version="1.1" width="288px" height="288px" style="shape-rendering:geometricPrecision; text-rendering:geometricPrecision; image-rendering:optimizeQuality; fill-rule:evenodd; clip-rule:evenodd" xmlns:xlink="http://www.w3.org/1999/xlink">
<g><path style="opacity:0.977" fill="#000000" d="M 33.5,32.5 C 105.502,32.5667 177.502,32.9 249.5,33.5C 249.5,46.1667 249.5,58.8333 249.5,71.5C 199.167,71.5 148.833,71.5 98.5,71.5C 94.9374,96.3107 97.7707,120.311 107,143.5C 116.335,161.61 130.668,172.943 150,177.5C 157.07,162.124 164.237,146.791 171.5,131.5C 193.5,130.167 215.5,130.167 237.5,131.5C 220.833,169.5 204.167,207.5 187.5,245.5C 165.174,246.666 142.841,246.833 120.5,246C 125.926,233.892 131.26,221.725 136.5,209.5C 101.088,204.24 74.9217,185.907 58,154.5C 45.592,129.606 38.2587,103.272 36,75.5C 34.8644,61.1819 34.031,46.8486 33.5,32.5 Z"/></g>
</svg>
