<?xml version="1.0" encoding="UTF-8"?>
<!DOCTYPE svg PUBLIC "-//W3C//DTD SVG 1.1//EN" "http://www.w3.org/Graphics/SVG/1.1/DTD/svg11.dtd">
<svg xmlns="http://www.w3.org/2000/svg" version="1.1" width="288px" height="288px" style="shape-rendering:geometricPrecision; text-rendering:geometricPrecision; image-rendering:optimizeQuality; fill-rule:evenodd; clip-rule:evenodd" xmlns:xlink="http://www.w3.org/1999/xlink">
<g><path style="opacity:0.974" fill="#000000" d="M 61.5,31.5 C 84.5,31.5 107.5,31.5 130.5,31.5C 130.237,53.0117 132.07,74.345 136,95.5C 166.266,83.4678 196.766,72.1345 227.5,61.5C 227.824,76.7448 227.491,91.9114 226.5,107C 200.087,117.471 173.753,128.138 147.5,139C 156.613,165.096 171.613,187.096 192.5,205C 211.398,219.228 232.732,225.728 256.5,224.5C 256.5,233.5 256.5,242.5 256.5,251.5C 185.562,249.879 130.562,219.879 91.5,161.5C 71.8333,169.5 52.1667,177.5 32.5,185.5C 31.5005,168.513 31.1672,151.513 31.5,134.5C 45.5623,129.961 59.229,124.627 72.5,118.5C 63.9959,90.1339 60.3292,61.1339 61.5,31.5 Z"/></g>
</svg>
