<?xml version="1.0" encoding="UTF-8"?>
<!DOCTYPE svg PUBLIC "-//W3C//DTD SVG 1.1//EN" "http://www.w3.org/Graphics/SVG/1.1/DTD/svg11.dtd">
<svg xmlns="http://www.w3.org/2000/svg" version="1.1" width="288px" height="288px" style="shape-rendering:geometricPrecision; text-rendering:geometricPrecision; image-rendering:optimizeQuality; fill-rule:evenodd; clip-rule:evenodd" xmlns:xlink="http://www.w3.org/1999/xlink">
<g><path style="opacity:0.973" fill="#000000" d="M 32.5,29.5 C 105.167,29.5 177.833,29.5 250.5,29.5C 250.5,40.5 250.5,51.5 250.5,62.5C 236.833,62.5 223.167,62.5 209.5,62.5C 209.5,76.5 209.5,90.5 209.5,104.5C 224.5,104.5 239.5,104.5 254.5,104.5C 254.5,118.167 254.5,131.833 254.5,145.5C 239.5,145.5 224.5,145.5 209.5,145.5C 209.667,165.503 209.5,185.503 209,205.5C 207.954,218.304 204.288,230.304 198,241.5C 190.969,252.928 180.802,259.095 167.5,260C 122.501,260.5 77.5012,260.667 32.5,260.5C 32.5,246.167 32.5,231.833 32.5,217.5C 66.2288,217.979 99.8955,217.479 133.5,216C 140.451,212.381 145.284,206.881 148,199.5C 149.125,190.571 149.625,181.571 149.5,172.5C 149.333,164.5 149.167,156.5 149,148.5C 148.215,146.714 147.049,145.214 145.5,144C 107.835,143.5 70.1681,143.333 32.5,143.5C 32.5,129.833 32.5,116.167 32.5,102.5C 69.8348,102.667 107.168,102.5 144.5,102C 146.667,101.167 148.167,99.6667 149,97.5C 149.667,87.5 149.667,77.5 149,67.5C 148.167,65.3333 146.667,63.8333 144.5,63C 107.137,62.1854 69.8041,62.3521 32.5,63.5C 32.5,52.1667 32.5,40.8333 32.5,29.5 Z"/></g>
</svg>
