<?xml version="1.0" encoding="UTF-8"?>
<!DOCTYPE svg PUBLIC "-//W3C//DTD SVG 1.1//EN" "http://www.w3.org/Graphics/SVG/1.1/DTD/svg11.dtd">
<svg xmlns="http://www.w3.org/2000/svg" version="1.1" width="288px" height="288px" style="shape-rendering:geometricPrecision; text-rendering:geometricPrecision; image-rendering:optimizeQuality; fill-rule:evenodd; clip-rule:evenodd" xmlns:xlink="http://www.w3.org/1999/xlink">
<g><path style="opacity:0.972" fill="#000000" d="M 41.5,35.5 C 109.167,35.5 176.833,35.5 244.5,35.5C 244.5,48.8333 244.5,62.1667 244.5,75.5C 220.833,75.5 197.167,75.5 173.5,75.5C 173.5,115.833 173.5,156.167 173.5,196.5C 201.167,196.5 228.833,196.5 256.5,196.5C 256.5,211.5 256.5,226.5 256.5,241.5C 181.167,241.5 105.833,241.5 30.5,241.5C 30.5,226.5 30.5,211.5 30.5,196.5C 58.1667,196.5 85.8333,196.5 113.5,196.5C 113.5,156.167 113.5,115.833 113.5,75.5C 89.5,75.5 65.5,75.5 41.5,75.5C 41.5,62.1667 41.5,48.8333 41.5,35.5 Z"/></g>
</svg>
