<?xml version="1.0" encoding="UTF-8"?>
<!DOCTYPE svg PUBLIC "-//W3C//DTD SVG 1.1//EN" "http://www.w3.org/Graphics/SVG/1.1/DTD/svg11.dtd">
<svg xmlns="http://www.w3.org/2000/svg" version="1.1" width="288px" height="288px" style="shape-rendering:geometricPrecision; text-rendering:geometricPrecision; image-rendering:optimizeQuality; fill-rule:evenodd; clip-rule:evenodd" xmlns:xlink="http://www.w3.org/1999/xlink">
<g><path style="opacity:0.973" fill="#000000" d="M 168.5,21.5 C 189.167,21.5 209.833,21.5 230.5,21.5C 230.161,27.5436 229.494,33.5436 228.5,39.5C 240.167,39.5 251.833,39.5 263.5,39.5C 263.5,54.1667 263.5,68.8333 263.5,83.5C 250.167,83.5 236.833,83.5 223.5,83.5C 217.418,135.071 211.085,186.571 204.5,238C 224.164,238.5 243.831,238.667 263.5,238.5C 263.5,247.167 263.5,255.833 263.5,264.5C 190.167,264.5 116.833,264.5 43.5,264.5C 43.5,255.833 43.5,247.167 43.5,238.5C 77.5,238.5 111.5,238.5 145.5,238.5C 150.899,186.841 156.233,135.174 161.5,83.5C 137.5,83.5 113.5,83.5 89.5,83.5C 89.1672,120.837 104.167,150.171 134.5,171.5C 135.497,178.803 135.831,186.137 135.5,193.5C 88.5147,193.259 55.6814,171.592 37,128.5C 25.527,99.9664 20.027,70.2997 20.5,39.5C 69.1712,39.8333 117.838,39.4999 166.5,38.5C 167.495,32.8865 168.162,27.2198 168.5,21.5 Z"/></g>
</svg>
