<?xml version="1.0" encoding="UTF-8"?>
<!DOCTYPE svg PUBLIC "-//W3C//DTD SVG 1.1//EN" "http://www.w3.org/Graphics/SVG/1.1/DTD/svg11.dtd">
<svg xmlns="http://www.w3.org/2000/svg" version="1.1" width="288px" height="288px" style="shape-rendering:geometricPrecision; text-rendering:geometricPrecision; image-rendering:optimizeQuality; fill-rule:evenodd; clip-rule:evenodd" xmlns:xlink="http://www.w3.org/1999/xlink">
<g><path style="opacity:0.978" fill="#000000" d="M 124.5,23.5 C 145.5,23.5 166.5,23.5 187.5,23.5C 186.577,35.2195 185.243,46.8862 183.5,58.5C 207.167,58.5 230.833,58.5 254.5,58.5C 254.5,72.1667 254.5,85.8333 254.5,99.5C 228.833,99.5 203.167,99.5 177.5,99.5C 175.435,119.784 172.769,139.95 169.5,160C 197.831,160.5 226.165,160.667 254.5,160.5C 254.5,174.167 254.5,187.833 254.5,201.5C 224.5,201.5 194.5,201.5 164.5,201.5C 162.198,222.088 159.531,242.588 156.5,263C 135.503,263.5 114.503,263.667 93.5,263.5C 96.1667,242.833 98.8333,222.167 101.5,201.5C 77.5,201.5 53.5,201.5 29.5,201.5C 29.5,187.833 29.5,174.167 29.5,160.5C 55.5,160.5 81.5,160.5 107.5,160.5C 109.514,140.403 112.181,120.403 115.5,100.5C 87.1745,99.5002 58.8412,99.1669 30.5,99.5C 30.5,85.8333 30.5,72.1667 30.5,58.5C 60.5074,58.8332 90.5074,58.4998 120.5,57.5C 122.197,46.2238 123.531,34.8904 124.5,23.5 Z"/></g>
</svg>
