<?xml version="1.0" encoding="UTF-8"?>
<!DOCTYPE svg PUBLIC "-//W3C//DTD SVG 1.1//EN" "http://www.w3.org/Graphics/SVG/1.1/DTD/svg11.dtd">
<svg xmlns="http://www.w3.org/2000/svg" version="1.1" width="288px" height="288px" style="shape-rendering:geometricPrecision; text-rendering:geometricPrecision; image-rendering:optimizeQuality; fill-rule:evenodd; clip-rule:evenodd" xmlns:xlink="http://www.w3.org/1999/xlink">
<g><path style="opacity:0.979" fill="#000000" d="M 29.5,7.5 C 104.833,7.5 180.167,7.5 255.5,7.5C 255.5,16.1667 255.5,24.8333 255.5,33.5C 214.167,33.5 172.833,33.5 131.5,33.5C 131.5,47.1667 131.5,60.8333 131.5,74.5C 170.167,74.5 208.833,74.5 247.5,74.5C 247.5,88.5 247.5,102.5 247.5,116.5C 216.833,116.5 186.167,116.5 155.5,116.5C 156.391,150.757 166.224,182.091 185,210.5C 201.514,233.503 223.681,247.837 251.5,253.5C 251.5,261.5 251.5,269.5 251.5,277.5C 211.033,277.854 176.867,263.52 149,234.5C 140.353,224.539 132.686,213.872 126,202.5C 123.743,228.165 121.576,253.832 119.5,279.5C 100.167,279.5 80.8333,279.5 61.5,279.5C 61.3334,255.498 61.5,231.498 62,207.5C 64.4022,196.616 66.0689,185.616 67,174.5C 68.4575,155.513 69.6242,136.513 70.5,117.5C 56.8333,117.5 43.1667,117.5 29.5,117.5C 29.5,103.5 29.5,89.5 29.5,75.5C 43.1667,75.5 56.8333,75.5 70.5,75.5C 70.5,61.8333 70.5,48.1667 70.5,34.5C 56.8333,34.5 43.1667,34.5 29.5,34.5C 29.5,25.5 29.5,16.5 29.5,7.5 Z"/></g>
</svg>
