<?xml version="1.0" encoding="UTF-8"?>
<!DOCTYPE svg PUBLIC "-//W3C//DTD SVG 1.1//EN" "http://www.w3.org/Graphics/SVG/1.1/DTD/svg11.dtd">
<svg xmlns="http://www.w3.org/2000/svg" version="1.1" width="288px" height="288px" style="shape-rendering:geometricPrecision; text-rendering:geometricPrecision; image-rendering:optimizeQuality; fill-rule:evenodd; clip-rule:evenodd" xmlns:xlink="http://www.w3.org/1999/xlink">
<g><path style="opacity:0.977" fill="#000000" d="M 29.5,7.5 C 104.167,7.5 178.833,7.5 253.5,7.5C 253.5,15.8333 253.5,24.1667 253.5,32.5C 236.833,32.5 220.167,32.5 203.5,32.5C 197.307,71.4149 206.807,105.748 232,135.5C 235.5,138.333 239,141.167 242.5,144C 245.893,146.076 249.56,147.242 253.5,147.5C 253.831,155.196 253.497,162.862 252.5,170.5C 240.522,172.551 228.856,171.384 217.5,167C 201.361,159.199 187.194,148.699 175,135.5C 170.047,129.759 165.214,123.926 160.5,118C 151.84,117.5 143.173,117.334 134.5,117.5C 131.583,148.596 135.083,178.929 145,208.5C 162.26,246.901 191.76,261.901 233.5,253.5C 233.5,261.5 233.5,269.5 233.5,277.5C 115.043,289.376 60.7097,236.042 70.5,117.5C 56.8333,117.5 43.1667,117.5 29.5,117.5C 29.5,102.833 29.5,88.1667 29.5,73.5C 67.5,73.5 105.5,73.5 143.5,73.5C 143.5,59.8333 143.5,46.1667 143.5,32.5C 105.5,32.5 67.5,32.5 29.5,32.5C 29.5,24.1667 29.5,15.8333 29.5,7.5 Z"/></g>
</svg>
