<?xml version="1.0" encoding="UTF-8"?>
<!DOCTYPE svg PUBLIC "-//W3C//DTD SVG 1.1//EN" "http://www.w3.org/Graphics/SVG/1.1/DTD/svg11.dtd">
<svg xmlns="http://www.w3.org/2000/svg" version="1.1" width="288px" height="288px" style="shape-rendering:geometricPrecision; text-rendering:geometricPrecision; image-rendering:optimizeQuality; fill-rule:evenodd; clip-rule:evenodd" xmlns:xlink="http://www.w3.org/1999/xlink">
<g><path style="opacity:0.975" fill="#000000" d="M 57.5,21.5 C 77.5,21.5 97.5,21.5 117.5,21.5C 117.5,39.5 117.5,57.5 117.5,75.5C 132.5,75.5 147.5,75.5 162.5,75.5C 162.5,57.8333 162.5,40.1667 162.5,22.5C 182.5,22.5 202.5,22.5 222.5,22.5C 222.5,40.1667 222.5,57.8333 222.5,75.5C 233.5,75.5 244.5,75.5 255.5,75.5C 255.5,90.5 255.5,105.5 255.5,120.5C 244.167,120.5 232.833,120.5 221.5,120.5C 221.5,137.167 221.5,153.833 221.5,170.5C 201.167,170.5 180.833,170.5 160.5,170.5C 160.5,153.833 160.5,137.167 160.5,120.5C 145.167,120.5 129.833,120.5 114.5,120.5C 111.591,144.748 114.091,168.415 122,191.5C 135.257,220.048 157.757,235.214 189.5,237C 197.519,237.61 205.519,237.443 213.5,236.5C 213.5,244.833 213.5,253.167 213.5,261.5C 188.94,263.681 164.607,262.181 140.5,257C 101.896,247.065 76.0627,223.231 63,185.5C 57.0462,164.245 54.8795,142.578 56.5,120.5C 48.1667,120.5 39.8333,120.5 31.5,120.5C 31.5,105.5 31.5,90.5 31.5,75.5C 40.1667,75.5 48.8333,75.5 57.5,75.5C 57.5,57.5 57.5,39.5 57.5,21.5 Z"/></g>
</svg>
