<?xml version="1.0" encoding="UTF-8"?>
<!DOCTYPE svg PUBLIC "-//W3C//DTD SVG 1.1//EN" "http://www.w3.org/Graphics/SVG/1.1/DTD/svg11.dtd">
<svg xmlns="http://www.w3.org/2000/svg" version="1.1" width="288px" height="288px" style="shape-rendering:geometricPrecision; text-rendering:geometricPrecision; image-rendering:optimizeQuality; fill-rule:evenodd; clip-rule:evenodd" xmlns:xlink="http://www.w3.org/1999/xlink">
<g><path style="opacity:0.979" fill="#000000" d="M 59.5,31.5 C 123.5,31.5 187.5,31.5 251.5,31.5C 251.5,46.8333 251.5,62.1667 251.5,77.5C 212.5,77.5 173.5,77.5 134.5,77.5C 134.726,105.131 139.893,131.798 150,157.5C 169.708,202.036 203.875,226.036 252.5,229.5C 252.5,237.833 252.5,246.167 252.5,254.5C 205.871,255.678 164.204,242.178 127.5,214C 124,210.5 120.5,207 117,203.5C 106.291,220.418 95.458,237.252 84.5,254C 66.1697,254.5 47.8364,254.667 29.5,254.5C 28.8887,248.566 29.722,242.9 32,237.5C 48.3736,208.585 64.8736,179.752 81.5,151C 77.6948,144.588 74.8615,137.755 73,130.5C 64.5282,98.0313 60.0282,65.0313 59.5,31.5 Z"/></g>
</svg>
