<?xml version="1.0" encoding="UTF-8"?>
<!DOCTYPE svg PUBLIC "-//W3C//DTD SVG 1.1//EN" "http://www.w3.org/Graphics/SVG/1.1/DTD/svg11.dtd">
<svg xmlns="http://www.w3.org/2000/svg" version="1.1" width="288px" height="288px" style="shape-rendering:geometricPrecision; text-rendering:geometricPrecision; image-rendering:optimizeQuality; fill-rule:evenodd; clip-rule:evenodd" xmlns:xlink="http://www.w3.org/1999/xlink">
<g><path style="opacity:0.968" fill="#000000" d="M 29.5,31.5 C 104.5,31.5 179.5,31.5 254.5,31.5C 254.5,64.8333 254.5,98.1667 254.5,131.5C 237.167,131.5 219.833,131.5 202.5,131.5C 202.5,112.5 202.5,93.5 202.5,74.5C 162.494,74.6836 122.494,74.3503 82.5,73.5C 82.3334,91.5031 82.5001,109.503 83,127.5C 84.1026,153.611 92.1026,177.278 107,198.5C 132.298,226.11 163.798,238.776 201.5,236.5C 201.831,245.192 201.498,253.859 200.5,262.5C 164.52,263.138 130.52,255.305 98.5,239C 56.348,212.23 33.5147,173.73 30,123.5C 29.5,92.8351 29.3334,62.1685 29.5,31.5 Z"/></g>
</svg>
