<?xml version="1.0" encoding="UTF-8"?>
<!DOCTYPE svg PUBLIC "-//W3C//DTD SVG 1.1//EN" "http://www.w3.org/Graphics/SVG/1.1/DTD/svg11.dtd">
<svg xmlns="http://www.w3.org/2000/svg" version="1.1" width="288px" height="288px" style="shape-rendering:geometricPrecision; text-rendering:geometricPrecision; image-rendering:optimizeQuality; fill-rule:evenodd; clip-rule:evenodd" xmlns:xlink="http://www.w3.org/1999/xlink">
<g><path style="opacity:0.976" fill="#000000" d="M 173.5,12.5 C 200.167,12.5 226.833,12.5 253.5,12.5C 253.5,100.167 253.5,187.833 253.5,275.5C 178.833,275.5 104.167,275.5 29.5,275.5C 29.5,266.833 29.5,258.167 29.5,249.5C 78.5,249.5 127.5,249.5 176.5,249.5C 176.5,224.167 176.5,198.833 176.5,173.5C 127.833,173.5 79.1667,173.5 30.5,173.5C 30.3335,163.161 30.5002,152.828 31,142.5C 78.3962,98.9318 125.896,55.5985 173.5,12.5 Z M 173.5,47.5 C 174.498,79.329 174.832,111.329 174.5,143.5C 139.498,143.667 104.498,143.5 69.5,143C 104.663,111.669 139.329,79.8357 173.5,47.5 Z"/></g>
</svg>
