<?xml version="1.0" encoding="UTF-8"?>
<!DOCTYPE svg PUBLIC "-//W3C//DTD SVG 1.1//EN" "http://www.w3.org/Graphics/SVG/1.1/DTD/svg11.dtd">
<svg xmlns="http://www.w3.org/2000/svg" version="1.1" width="288px" height="288px" style="shape-rendering:geometricPrecision; text-rendering:geometricPrecision; image-rendering:optimizeQuality; fill-rule:evenodd; clip-rule:evenodd" xmlns:xlink="http://www.w3.org/1999/xlink">
<g><path style="opacity:0.974" fill="#000000" d="M 112.5,7.5 C 132.833,7.5 153.167,7.5 173.5,7.5C 173.334,17.8387 173.5,28.172 174,38.5C 175.167,41 177,42.8333 179.5,44C 204.498,44.5 229.498,44.6666 254.5,44.5C 254.5,58.8333 254.5,73.1667 254.5,87.5C 206.829,87.1667 159.162,87.5001 111.5,88.5C 116.536,109.736 127.536,127.236 144.5,141C 177.028,165.573 213.694,180.073 254.5,184.5C 254.5,193.5 254.5,202.5 254.5,211.5C 236.387,210.317 218.387,208.151 200.5,205C 191.029,203.508 181.863,201.008 173,197.5C 172.5,216.164 172.333,234.83 172.5,253.5C 199.833,253.5 227.167,253.5 254.5,253.5C 254.5,262.167 254.5,270.833 254.5,279.5C 179.833,279.5 105.167,279.5 30.5,279.5C 30.5,270.833 30.5,262.167 30.5,253.5C 57.8333,253.5 85.1667,253.5 112.5,253.5C 112.5,230.833 112.5,208.167 112.5,185.5C 85.6314,196.599 58.9648,208.265 32.5,220.5C 31.1667,204.5 31.1667,188.5 32.5,172.5C 49.124,164.57 65.7907,156.737 82.5,149C 50.4201,121.673 33.0867,86.8396 30.5,44.5C 55.8355,44.6666 81.1689,44.5 106.5,44C 109.428,42.7402 111.261,40.5735 112,37.5C 112.5,27.5056 112.666,17.5056 112.5,7.5 Z"/></g>
</svg>
