<?xml version="1.0" encoding="UTF-8"?>
<!DOCTYPE svg PUBLIC "-//W3C//DTD SVG 1.1//EN" "http://www.w3.org/Graphics/SVG/1.1/DTD/svg11.dtd">
<svg xmlns="http://www.w3.org/2000/svg" version="1.1" width="288px" height="288px" style="shape-rendering:geometricPrecision; text-rendering:geometricPrecision; image-rendering:optimizeQuality; fill-rule:evenodd; clip-rule:evenodd" xmlns:xlink="http://www.w3.org/1999/xlink">
<g><path style="opacity:0.975" fill="#000000" d="M 31.5,26.5 C 102.833,26.5 174.167,26.5 245.5,26.5C 245.5,41.1667 245.5,55.8333 245.5,70.5C 197.833,70.5 150.167,70.5 102.5,70.5C 104.744,93.1427 110.577,114.809 120,135.5C 145.76,124.038 171.593,112.704 197.5,101.5C 198.833,118.833 198.833,136.167 197.5,153.5C 180.017,161.076 162.684,168.909 145.5,177C 174.158,209.993 210.491,227.493 254.5,229.5C 254.666,238.839 254.5,248.173 254,257.5C 207.754,257.48 164.587,245.98 124.5,223C 113.424,215.923 102.924,208.089 93,199.5C 72.3092,208.931 51.4758,217.931 30.5,226.5C 30.1672,209.154 30.5005,191.821 31.5,174.5C 42.2958,170.268 52.6291,165.268 62.5,159.5C 46.8782,131.132 37.3782,100.799 34,68.5C 32.7294,54.5246 31.896,40.5246 31.5,26.5 Z"/></g>
</svg>
