<?xml version="1.0" encoding="UTF-8"?>
<!DOCTYPE svg PUBLIC "-//W3C//DTD SVG 1.1//EN" "http://www.w3.org/Graphics/SVG/1.1/DTD/svg11.dtd">
<svg xmlns="http://www.w3.org/2000/svg" version="1.1" width="288px" height="288px" style="shape-rendering:geometricPrecision; text-rendering:geometricPrecision; image-rendering:optimizeQuality; fill-rule:evenodd; clip-rule:evenodd" xmlns:xlink="http://www.w3.org/1999/xlink">
<g><path style="opacity:0.976" fill="#000000" d="M 80.5,22.5 C 102.833,22.5 125.167,22.5 147.5,22.5C 147.5,41.1667 147.5,59.8333 147.5,78.5C 182.5,78.5 217.5,78.5 252.5,78.5C 252.5,93.1667 252.5,107.833 252.5,122.5C 217.5,122.5 182.5,122.5 147.5,122.5C 145.784,154.321 154.284,182.988 173,208.5C 190.962,227.56 213.129,237.56 239.5,238.5C 239.5,246.5 239.5,254.5 239.5,262.5C 207.803,265.141 177.803,259.308 149.5,245C 114.886,224.003 93.3856,193.503 85,153.5C 82.9849,143.227 81.4849,132.894 80.5,122.5C 63.5,122.5 46.5,122.5 29.5,122.5C 29.5,107.833 29.5,93.1667 29.5,78.5C 46.5,78.5 63.5,78.5 80.5,78.5C 80.5,59.8333 80.5,41.1667 80.5,22.5 Z"/></g>
</svg>
