<?xml version="1.0" encoding="UTF-8"?>
<!DOCTYPE svg PUBLIC "-//W3C//DTD SVG 1.1//EN" "http://www.w3.org/Graphics/SVG/1.1/DTD/svg11.dtd">
<svg xmlns="http://www.w3.org/2000/svg" version="1.1" width="288px" height="288px" style="shape-rendering:geometricPrecision; text-rendering:geometricPrecision; image-rendering:optimizeQuality; fill-rule:evenodd; clip-rule:evenodd" xmlns:xlink="http://www.w3.org/1999/xlink">
<g><path style="opacity:0.979" fill="#000000" d="M 94.5,23.5 C 126.835,23.3334 159.168,23.5 191.5,24C 208.826,27.5002 224.492,34.5002 238.5,45C 248.416,53.9972 254.249,65.1638 256,78.5C 256.667,96.8333 256.667,115.167 256,133.5C 252.653,152.519 242.153,166.019 224.5,174C 216.497,177.668 208.163,180.334 199.5,182C 174.833,182.667 150.167,182.667 125.5,182C 119.488,178.999 114.322,174.833 110,169.5C 108.658,198.494 121.492,218.327 148.5,229C 171.326,236.306 194.659,238.473 218.5,235.5C 218.5,244.833 218.5,254.167 218.5,263.5C 191.165,263.667 163.831,263.5 136.5,263C 81.7677,258.561 46.601,230.061 31,177.5C 30.3333,146.167 30.3333,114.833 31,83.5C 31.5436,65.5764 39.0436,51.4097 53.5,41C 66.2892,32.9341 79.9559,27.1008 94.5,23.5 Z M 136.5,52.5 C 148.026,52.9549 158.693,56.1215 168.5,62C 173.953,67.7404 177.119,74.5737 178,82.5C 178.667,97.1667 178.667,111.833 178,126.5C 174.459,146.202 162.626,156.535 142.5,157.5C 123.135,155.301 111.635,144.635 108,125.5C 107.813,113.787 107.313,102.121 106.5,90.5C 106.313,78.8903 109.98,68.7237 117.5,60C 123.431,56.1955 129.764,53.6955 136.5,52.5 Z"/></g>
</svg>
