<?xml version="1.0" encoding="UTF-8"?>
<!DOCTYPE svg PUBLIC "-//W3C//DTD SVG 1.1//EN" "http://www.w3.org/Graphics/SVG/1.1/DTD/svg11.dtd">
<svg xmlns="http://www.w3.org/2000/svg" version="1.1" width="288px" height="288px" style="shape-rendering:geometricPrecision; text-rendering:geometricPrecision; image-rendering:optimizeQuality; fill-rule:evenodd; clip-rule:evenodd" xmlns:xlink="http://www.w3.org/1999/xlink">
<g><path style="opacity:0.974" fill="#000000" d="M 181.5,24.5 C 203.833,24.5 226.167,24.5 248.5,24.5C 248.667,76.8344 248.5,129.168 248,181.5C 244.662,222.5 222.828,246.667 182.5,254C 132.517,255.431 82.517,255.931 32.5,255.5C 32.5,241.5 32.5,227.5 32.5,213.5C 69.1682,213.667 105.835,213.5 142.5,213C 160.109,208.061 171.942,196.894 178,179.5C 179.452,159.554 179.952,139.554 179.5,119.5C 130.5,119.5 81.5,119.5 32.5,119.5C 32.5,104.833 32.5,90.1667 32.5,75.5C 82.1667,75.5 131.833,75.5 181.5,75.5C 181.5,58.5 181.5,41.5 181.5,24.5 Z"/></g>
</svg>
